<svg width="24" height="24" viewBox="0 0 24 24" fill="none" xmlns="http://www.w3.org/2000/svg">
<g clip-path="url(#clip0_77_474)">
<path d="M15.6833 0H8.31602C1.59302 0 -0.000732422 1.59375 -0.000732422 8.31675V15.684C-0.000732422 22.407 1.59302 24.0007 8.31602 24.0007H15.6833C22.4063 24.0007 24 22.407 24 15.684V8.31675C24 1.59375 22.3905 0 15.6833 0ZM19.3748 17.121H17.6325C16.9725 17.121 16.7693 16.5975 15.582 15.3945C14.5508 14.3947 14.094 14.262 13.8398 14.262C13.4805 14.262 13.3785 14.3633 13.3785 14.856V16.4303C13.3785 16.8525 13.2458 17.106 12.1283 17.106C10.2803 17.106 8.22977 15.9885 6.79202 13.9065C4.62377 10.8555 4.03052 8.57025 4.03052 8.09775C4.03052 7.8435 4.13177 7.60575 4.62002 7.60575H6.36602C6.80777 7.60575 6.97577 7.809 7.14752 8.2815C8.01077 10.7738 9.44852 12.957 10.0418 12.957C10.2608 12.957 10.362 12.8558 10.362 12.297V9.723C10.2953 8.53575 9.67052 8.43375 9.67052 8.01225C9.67052 7.809 9.83852 7.60575 10.1078 7.60575H12.8535C13.2248 7.60575 13.3613 7.809 13.3613 8.24625V11.7188C13.3613 12.0938 13.5293 12.2265 13.6305 12.2265C13.8495 12.2265 14.037 12.0938 14.4428 11.6873C15.6968 10.281 16.5953 8.11275 16.5953 8.11275C16.7123 7.8585 16.9155 7.62075 17.3573 7.62075H19.1033C19.6268 7.62075 19.7438 7.89 19.6268 8.265C19.4078 9.2805 17.271 12.2963 17.271 12.2963C17.0873 12.6007 17.0168 12.7335 17.271 13.0732C17.4585 13.3275 18.0683 13.8548 18.474 14.3273C19.2203 15.1748 19.794 15.8857 19.947 16.3778C20.1188 16.866 19.8653 17.1203 19.3725 17.1203L19.3748 17.121Z" fill="white"/>
</g>
<defs>
<clipPath id="clip0_77_474">
<rect width="24" height="24" fill="white"/>
</clipPath>
</defs>
</svg>
