<svg width="24" height="24" viewBox="0 0 24 24" fill="none" xmlns="http://www.w3.org/2000/svg">
<g clip-path="url(#clip0_77_472)">
<path d="M11.9968 7.99814C9.79333 7.99814 7.99515 9.79632 7.99515 11.9998C7.99515 14.2032 9.79333 16.0014 11.9968 16.0014C14.2002 16.0014 15.9984 14.2032 15.9984 11.9998C15.9984 9.79632 14.2002 7.99814 11.9968 7.99814ZM23.9987 11.9998C23.9987 10.3427 24.0137 8.7006 23.9206 7.04651C23.8275 5.12525 23.3893 3.42014 21.9843 2.01521C20.5764 0.60729 18.8743 0.172005 16.953 0.0789441C15.2959 -0.014117 13.6539 0.000892918 11.9998 0.000892918C10.3427 0.000892918 8.70061 -0.014117 7.04652 0.0789441C5.12526 0.172005 3.42014 0.610292 2.01522 2.01521C0.607291 3.42314 0.172005 5.12525 0.0789442 7.04651C-0.014117 8.7036 0.000892919 10.3457 0.000892919 11.9998C0.000892919 13.6538 -0.014117 15.2989 0.0789442 16.953C0.172005 18.8743 0.610293 20.5794 2.01522 21.9843C3.42314 23.3922 5.12526 23.8275 7.04652 23.9206C8.70361 24.0136 10.3457 23.9986 11.9998 23.9986C13.6569 23.9986 15.2989 24.0136 16.953 23.9206C18.8743 23.8275 20.5794 23.3892 21.9843 21.9843C23.3923 20.5764 23.8275 18.8743 23.9206 16.953C24.0167 15.2989 23.9987 13.6568 23.9987 11.9998ZM11.9968 18.1568C8.58954 18.1568 5.83973 15.407 5.83973 11.9998C5.83973 8.59253 8.58954 5.84272 11.9968 5.84272C15.404 5.84272 18.1538 8.59253 18.1538 11.9998C18.1538 15.407 15.404 18.1568 11.9968 18.1568ZM18.406 7.0285C17.6105 7.0285 16.968 6.38608 16.968 5.59056C16.968 4.79504 17.6105 4.15262 18.406 4.15262C19.2015 4.15262 19.8439 4.79504 19.8439 5.59056C19.8442 5.77946 19.8071 5.96655 19.735 6.14112C19.6628 6.31568 19.5569 6.47429 19.4233 6.60787C19.2897 6.74144 19.1311 6.84735 18.9565 6.91953C18.782 6.99171 18.5949 7.02874 18.406 7.0285Z" fill="white"/>
</g>
<defs>
<clipPath id="clip0_77_472">
<rect width="24" height="24" fill="white"/>
</clipPath>
</defs>
</svg>
